<?xml version="1.0" standalone="no"?>
<!DOCTYPE svg PUBLIC "-//W3C//DTD SVG 1.1//EN" "http://www.w3.org/Graphics/SVG/1.1/DTD/svg11.dtd" >
<svg xmlns="http://www.w3.org/2000/svg">
<metadata>Generated by IcoMoon</metadata>
<defs>
<font id="icomoon" horiz-adv-x="1024">
<font-face units-per-em="1024" ascent="960" descent="-64" />
<missing-glyph horiz-adv-x="1024" />
<glyph unicode="&#x20;" horiz-adv-x="512" d="" />
<glyph unicode="&#xe900;" glyph-name="uploads" d="M341.333 163.556v-56.89h284.445v56.89h-284.445zM199.111 106.666c-108.089 0.001-199.111 91.024-199.111 199.113 0 102.4 73.956 182.044 170.667 199.11 11.377 159.29 147.91 284.445 312.889 284.445s295.822-125.156 312.888-284.444c96.712-11.378 170.667-96.711 170.667-199.111 0-108.090-91.022-199.111-199.111-199.111h-568.889zM768 163.557c79.644 0 142.222 62.577 142.222 142.222 0 73.955-51.2 130.844-125.155 142.222l-45.511 5.689v45.51c-11.378 130.844-125.156 233.244-256 233.244s-244.623-102.4-256-233.244l-5.69-45.511-39.821-5.689c-73.955-11.378-125.155-68.267-125.155-142.222 0-79.645 62.578-142.222 142.222-142.222h568.888zM484.409 564.622l201.159-201.102-40.22-40.22-201.16 201.102zM282.738 360.676l201.102 201.102 40.22-40.22-201.102-201.16zM455.111 504.889h56.889v-455.111h-56.889z" />
<glyph unicode="&#xe901;" glyph-name="pinglun" d="M844.8 870.4h-665.6c-63.594-0.073-115.127-51.606-115.2-115.193v-454.945c0-63.514 51.686-115.2 115.2-115.2h352l180.275-180.275c7.501-7.501 17.331-11.238 27.162-11.238s19.661 3.738 27.162 11.238c6.947 6.949 11.243 16.547 11.243 27.149s-4.296 20.2-11.243 27.149l-184.013 184.013c-11.525 11.591-27.483 18.765-45.115 18.765-0.069 0-0.138 0-0.207 0h-357.263c-21.171 0-38.4 17.229-38.4 38.4v454.938c0 21.171 17.229 38.4 38.4 38.4h665.6c21.171 0 38.4-17.229 38.4-38.4v-454.938c0-21.171-17.229-38.4-38.4-38.4h-87.014c-21.208 0-38.4-17.192-38.4-38.4s17.192-38.4 38.4-38.4h87.014c63.514 0 115.2 51.686 115.2 115.2v454.938c0 63.514-51.686 115.2-115.2 115.2zM307.2 584.141h409.6c14.138 0 25.6 11.462 25.6 25.6s-11.462 25.6-25.6 25.6h-409.6c-14.138 0-25.6-11.462-25.6-25.6s11.462-25.6 25.6-25.6v0zM307.2 425.165h409.6c14.138 0 25.6 11.462 25.6 25.6s-11.462 25.6-25.6 25.6h-409.6c-14.138 0-25.6-11.462-25.6-25.6s11.462-25.6 25.6-25.6v0z" />
<glyph unicode="&#xe902;" glyph-name="all" d="M633.267 66.575c-54.241 0.072-98.432 44.257-98.504 98.504v161.669c0.082 54.236 44.268 98.427 98.509 98.504h161.664c54.241-0.082 98.432-44.268 98.504-98.509v-161.669c-0.056-54.262-44.247-98.447-98.509-98.499h-161.664zM633.262 389.924c-34.79-0.036-63.145-28.375-63.201-63.171v-161.679c0.046-34.811 28.401-63.16 63.201-63.201h161.674c34.811 0.041 63.165 28.39 63.206 63.196v161.679c-0.051 34.801-28.406 63.14-63.201 63.176h-161.679zM229.043 66.575c-54.252 0.067-98.437 44.252-98.483 98.504v161.669c0.056 54.241 44.242 98.432 98.488 98.504h161.674c54.252-0.061 98.437-44.252 98.483-98.504v-161.674c0-54.313-44.18-98.499-98.483-98.499h-161.679zM229.043 389.924c-34.79-0.036-63.14-28.375-63.186-63.171v-161.679c0.046-34.801 28.39-63.15 63.186-63.201h161.7c34.796 0.051 63.14 28.401 63.186 63.196l0.005 2.565h-0.020v159.114c-0.051 34.801-28.39 63.14-63.191 63.176h-161.679zM633.267 470.779c-54.313 0-98.504 44.18-98.504 98.483v161.674c0.077 54.246 44.268 98.432 98.509 98.488h161.664c54.246-0.056 98.437-44.242 98.504-98.488v-161.674c-0.061-54.252-44.252-98.432-98.509-98.483h-161.664zM633.262 794.127c-34.79-0.046-63.145-28.385-63.201-63.181v-161.679c0.046-34.806 28.401-63.15 63.201-63.186h161.674c34.801 0.046 63.155 28.39 63.206 63.181v161.674c-0.051 34.801-28.406 63.145-63.201 63.186h-161.679zM229.043 470.779c-54.303 0-98.483 44.18-98.483 98.483v161.674c0.051 54.257 44.232 98.437 98.488 98.488h161.674c54.262-0.046 98.442-44.227 98.483-98.488v-161.674c0-54.303-44.18-98.483-98.483-98.483h-161.679zM229.043 794.127c-34.796-0.046-63.14-28.385-63.186-63.186v-161.679c0.036-34.806 28.38-63.15 63.186-63.186h161.7c34.796 0.046 63.14 28.39 63.186 63.186l0.005 2.56h-0.020v159.114c-0.051 34.801-28.39 63.145-63.191 63.186h-161.679z" />
<glyph unicode="&#xe903;" glyph-name="biaoqing" d="M512 928c-264.64 0-480-215.36-480-480s215.36-480 480-480 480 215.36 480 480-215.36 480-480 480zM512 22.8c-234.48 0-425.2 190.681-425.2 425.2 0 234.48 190.72 425.2 425.2 425.2s425.2-190.72 425.2-425.2c0-234.48-190.72-425.2-425.2-425.2zM522.16 268.8c-0.865-0.010-1.887-0.017-2.91-0.017-73.956 0-140.592 31.341-187.351 81.466l-41.859-35.049c57.014-62.223 138.645-101.092 229.353-101.092 87.737 0 166.981 36.364 223.481 94.842l-39.354 37.769c-46.304-47.798-110.958-77.584-182.571-77.97zM640.439 568.96c0-14.16 5.84-28.24 15.84-38.24s24.080-15.84 38.24-15.84 28.24 5.799 38.279 15.84c10 10 15.84 24.080 15.84 38.24s-5.84 28.201-15.84 38.24c-9.862 9.764-23.423 15.806-38.395 15.84-14.045 0-28.085-5.841-38.124-15.84-10-10-15.84-24.080-15.84-38.24zM275.399 568.96c0-14.16 5.801-28.24 15.801-38.24s24.119-15.84 38.279-15.84c14.121 0 28.201 5.799 38.24 15.84 10 10 15.84 24.080 15.84 38.24s-5.84 28.201-15.84 38.24c-9.857 9.759-23.41 15.801-38.375 15.841-14.026-0.001-28.105-5.841-38.146-15.841-10-10-15.801-24.080-15.801-38.24z" />
<glyph unicode="&#xe904;" glyph-name="del" d="M878.54 733.456h-40.717v-651.469c0-44.976-36.458-81.434-81.434-81.434h-488.602c-44.976 0-81.434 36.458-81.434 81.434v651.469h-40.717c-22.488 0-40.717 18.229-40.717 40.717s18.229 40.717 40.717 40.717h244.301c0 44.976 36.458 81.434 81.434 81.434h81.434c44.976 0 81.434-36.458 81.434-81.434h244.301c22.488 0 40.717-18.229 40.717-40.717s-18.229-40.717-40.717-40.717zM756.389 733.456h-488.602v-651.469h488.602v651.469zM430.655 652.022c22.488 0 40.717-18.229 40.717-40.717v-407.168c0-22.488-18.229-40.717-40.717-40.717s-40.717 18.229-40.717 40.717v407.168c0 22.488 18.229 40.717 40.717 40.717zM593.522 652.022c22.488 0 40.717-18.229 40.717-40.717v-407.168c0-22.488-18.229-40.717-40.717-40.717s-40.717 18.229-40.717 40.717v407.168c0 22.488 18.229 40.717 40.717 40.717z" />
<glyph unicode="&#xe905;" glyph-name="dianzhang" d="M884.876 536.857h-237.905c92.186 340.464-63.517 357.853-63.517 357.853-65.993 0-52.312-52.182-57.303-60.882 0-166.502-176.85-296.972-176.85-296.972v-472.172c0-46.608 63.517-63.394 88.433-63.394h357.452c33.641 0 61.036 88.224 61.036 88.224 88.434 300.706 88.434 390.177 88.434 390.177 0.001 62.128-59.781 57.164-59.781 57.164v0 0zM251.671 536.7h-142.457c-29.42 0-29.873-28.896-29.873-28.896l29.42-476.203c0-30.309 30.361-30.309 30.361-30.309h123.297c25.686 0 25.459 20.050 25.459 20.050v479.247c0 36.574-36.208 36.111-36.208 36.111v0 0z" />
<glyph unicode="&#xe906;" glyph-name="dianzhang2" d="M895.877 347.572c-0.003 24.452-7.306 44.17-21.26 57.766 11.046 13.922 21.074 38.645 21.074 61.033l-0.003 0.243c-1.218 49.976-48.849 84.881-115.83 84.881h-153.309c11.149 36.051 16.076 77.486 13.934 118.279-2.436 46.409-13.833 87.677-32.090 116.203-10.674 16.666-23.408 29.023-37.849 36.734-11.407 6.091-23.568 9.179-36.145 9.179-27.123 0-72.622-11.471-72.622-88.303 0-38.011-1.578-75.829-20.598-120.455-8.363-15.294-62.974-71.937-117.904-71.937h-111.196c-21.741 0-41.215-7.992-56.314-23.111-17.866-17.89-27.684-44.161-27.644-73.971l0.045-0.927 28.83-304.199c4.076-54.43 33.411-84.402 82.614-84.403 0.149-0.002 23.152-0.188 40.22-0.188 8.862 0 17.121 0.071 22.091 0.19 16.85 0.554 30.109 10.371 40.762 18.261l3.212 2.375c3.232 2.395 7.502 5.559 9.766 6.464 1.789-0.791 4.822-2.279 7.572-3.629 5.628-2.76 13.334-6.542 21.719-10.106 19.905-8.407 48.599-13.835 73.12-13.835h232.556c109.080 0 125.368 55.062 125.368 87.884 0 10.916-1.732 19.471-6.029 28.187 33.935 12.011 53.775 36.378 53.775 66.999 0 9.696-2.932 23.857-8.554 34.498 18.582 11.589 40.731 37.111 40.688 65.892zM810.448 316.067h-14.34l0.635-45.116 6.788-2.572c2.697-0.999 9.014-3.337 9.031-20.108 0-19.717-32.096-26.877-53.669-26.877l-9.898 0.182-0.639-45.005 7.945-1.771c2.903-0.647 8.305-1.852 8.281-19.799 0-11.907-4.865-20.868-14.873-27.407-12.609-8.239-32.708-12.417-59.737-12.417h-240.829c-9.469 0-31.292 6.059-44.058 12.234-9.623 4.653-23.781 12.466-33.149 17.636-0.462 0.257-0.913 0.504-1.349 0.745v362.482c61.026 19.8 109.24 71.485 122.024 95.917l0.325 0.684c13.553 31.516 21.399 64.909 21.399 142.335 0 17.301 3.229 24.573 5.937 27.626 2.288 2.579 5.663 3.631 11.648 3.631 8.261 0 25.382-11.177 34.251-25.057 13.888-21.685 22.647-57.329 23.434-95.356 0.874-42.215-7.747-83.898-24.275-117.369l-0.482-0.977-9.698-39.465 225.877 0.049c30.606-1.735 63.025-14.051 63.176-33.552l-0.298-9.719c-0.384-5.659-2.923-19.071-9.417-24.457-6.571-5.458-11.655-6.351-12.584-6.472l-9.972 0.214 0.466-10.095-0.308-36.576 8.71-1.174c4.15-0.571 11.382-2.318 14.428-4.411 6.2-4.253 9.652-13.36 9.239-24.365-0.162-4.47-4.258-12.8-13.044-21.359-8.644-8.421-16.933-12.256-20.977-12.256zM318.87 500.307v-371.557c-4.036-2.867-7.27-5.23-9.077-6.561-5.080-3.745-9.175-6.227-10.896-7.053-13.259-0.323-50.436-0.055-61.837 0.036l-0.744 0.006c-12.706 0-24.679 13.286-27.974 30.969l-28.755 315.413c0.218 17.325 13.755 37.13 31.64 39.069l107.644-0.321z" />
<glyph unicode="&#xe907;" glyph-name="dongman" d="M896.364 506.941c-34.268 131.226-133.939 235.945-262.088 277.376-10.173 58.337-61.025 102.697-122.276 102.697s-112.108-44.365-122.276-102.702c-128.113-41.436-227.727-146.135-262.001-277.34-70.216-27.407-112.364-62.464-112.364-100.675 0-38.205 42.153-73.247 112.358-100.654 44.575-170.665 199.649-296.658 384.282-296.658 184.648 0 339.799 125.993 384.364 296.678 70.164 27.407 112.276 62.444 112.276 100.634 0 38.195-42.117 73.236-112.276 100.644zM457.37 729.492v32.942c0 0.067 0.010 0.128 0.010 0.189 0 0.077-0.010 0.154-0.010 0.23 0 30.172 24.458 54.63 54.63 54.63s54.63-24.458 54.63-54.63c0-0.061-0.010-0.118-0.010-0.179 0-0.082 0.010-0.159 0.010-0.241v-32.942c112.369-18.867 205.322-94.889 247.967-197.176-83.784 20.634-188.703 32.911-302.597 32.911-113.879 0-218.788-12.273-302.566-32.901 42.639 102.277 135.578 178.294 247.936 197.166zM833.265 347.53c-1.080-9.83-3.323-23.608-3.973-23.757-29.763-114.749-120.115-205.076-234.875-234.803-51.543 50.355-85.207 118.912-90.511 195.313 26.609 12.841 45.010 39.997 45.010 71.521 0 43.884-35.579 79.462-79.462 79.462s-79.462-35.579-79.462-79.462c0-31.222 18.048-58.158 44.242-71.153 4.291-77.404 32.266-148.434 76.744-206.116-150.4 0.461-276.884 102.236-314.962 240.645-1.167 0.23-4.244 16.445-4.552 29.174-67.359 13.66-106.573 36.296-106.573 57.943 0 49.372 191.222 89.395 427.11 89.395s427.11-40.023 427.11-89.395c0-22.426-39.629-43.249-105.846-58.767z" />
<glyph unicode="&#xe908;" glyph-name="edit" d="M65.086 199.103v-186.283h186.244l484.103 521.459-186.16 186.183-484.188-521.359zM884.447 683.187c18.411 18.31 18.411 56.136 0 74.528l-111.78 111.739c-18.494 18.31-56.054 18.31-74.467 0l-111.696-111.738 186.162-186.223 111.781 111.694zM437.492 87.365l-74.464-74.545h595.882v74.545h-521.418z" />
<glyph unicode="&#xe909;" glyph-name="eye" d="M508.392 167.96c-261.608 0-418.767 280.454-418.767 280.454s158.696 279.698 418.767 279.698c246.248 0 425.862-279.698 425.862-279.698s-181.175-280.454-425.862-280.454zM512.219 606.257c-0.022 0-0.047 0-0.073 0-87.525 0-158.483-70.932-158.525-158.448v-0.004c0-87.528 70.997-158.476 158.598-158.476 0.022 0 0.047 0 0.073 0 87.534 0 158.497 70.946 158.525 158.474v0.003c-0.042 87.519-71 158.452-158.525 158.452-0.026 0-0.051 0-0.077 0h0.004z" />
<glyph unicode="&#xe90a;" glyph-name="eye2" d="M512 618.667c-93.867 0-170.667-76.8-170.667-170.667s76.8-170.667 170.667-170.667 170.667 76.8 170.667 170.667-76.8 170.667-170.667 170.667zM512 320c-70.4 0-128 57.6-128 128s57.6 128 128 128 128-57.6 128-128-57.6-128-128-128zM512 810.667c-390.4 0-512-362.667-512-362.667s134.4-362.667 512-362.667 512 362.667 512 362.667-121.6 362.667-512 362.667zM512 128c-305.067 0-437.333 256-465.067 320 25.6 64 151.467 320 465.067 320 315.733 0 439.467-253.867 465.067-320-27.733-61.867-162.133-320-465.067-320z" />
<glyph unicode="&#xe90b;" glyph-name="gengduo" d="M511.999 846.275c219.515 0 398.104-178.588 398.104-398.104s-178.589-398.104-398.104-398.104-398.104 178.588-398.104 398.104 178.59 398.104 398.104 398.104zM511.999 896.038c-246.947 0-447.867-200.919-447.867-447.867s200.92-447.867 447.867-447.867c246.944 0 447.867 200.919 447.867 447.867s-200.923 447.867-447.867 447.867v0zM282.167 448.171c0-24.973 20.244-45.217 45.217-45.217s45.217 20.244 45.217 45.217v0c0 24.973-20.244 45.217-45.217 45.217s-45.217-20.244-45.217-45.217v0zM466.781 448.171c0-24.973 20.244-45.217 45.217-45.217s45.217 20.244 45.217 45.217v0c0 24.973-20.244 45.217-45.217 45.217s-45.217-20.244-45.217-45.217v0zM651.396 448.171c0-24.973 20.244-45.217 45.217-45.217s45.217 20.244 45.217 45.217v0c0 24.973-20.244 45.217-45.217 45.217s-45.217-20.244-45.217-45.217v0z" />
<glyph unicode="&#xe90c;" glyph-name="geshi" d="M610.016 760.416h-378.4v-624.8h536.768v444.384h39.616v-462.016c0-12.16-9.664-21.984-21.92-21.984h-572.16c-12.069 0.036-21.848 9.792-21.92 21.849v660.295c0 12.064 9.664 21.856 21.984 21.856h417.696c11.712-1.312 26.464-4.672 43.040-23.648 34.496-39.392 114.496-131.328 114.496-131.328s18.944-19.392 18.944-44.096v-20.928h-166.176c-17.673 0-32 14.327-32 32v0 148.416zM647.424 536h-74.72l-67.2-127.872-35.936 127.872h-75.296l50.176-148.32-1.216-1.92-97.248-157.76h75.104l77.984 138.976 40.64-138.976h77.44l-57.472 160.832 1.152 1.92 86.592 145.248z" />
<glyph unicode="&#xe90d;" glyph-name="gonggao" d="M527.5 881.8c-12 5.8-26.2 4.2-36.6-4.1-0.5-0.4-51.2-40.7-107.2-81.9-97.4-71.7-125.7-83.7-131.5-85.6h-152.1c-28.5 0-53.5-11.8-70.5-33.3-14.6-18.5-22.3-42.7-22.3-70v-304.2c0-57 46.3-103.3 103.2-103.3h42.7c19.1 0 34.6 15.5 34.6 34.6s-15.5 34.6-34.6 34.6h-42.7c-18.7 0-34 15.3-34 34.1v304.2c0 12.7 3.1 34.1 23.6 34.1h154.4c17.7 0 44.9 7.3 163.6 94.2 21.2 15.5 41.8 31.1 59.7 44.7v-645.4c-14.4 12.2-30.5 25.5-46.9 38.9-108.5 87.9-135.3 95.2-153.5 95.2-19.1 0-34.6-15.5-34.6-34.6 0-18.1 13.9-33 31.7-34.5 5-1.8 31.3-13.4 119.1-85 50.3-41 95.4-81 95.8-81.4 6.5-5.7 14.7-8.7 23-8.7 4.8 0 9.6 1 14.2 3 12.4 5.6 20.4 17.9 20.4 31.6v791.6c0.1 13.3-7.5 25.4-19.5 31.2zM795.3 822.8c-16.9 9-37.8 2.6-46.8-14.3s-2.6-37.8 14.3-46.8c113.9-60.5 184.6-177.7 184.6-306 0-128.2-70.7-245.5-184.6-306-16.9-9-23.3-29.9-14.3-46.8 6.2-11.7 18.2-18.4 30.6-18.4 5.5 0 11 1.3 16.2 4.1 136.5 72.6 221.3 213.2 221.3 367.1s-84.8 294.6-221.3 367.1zM799.6 327.1c23.9 38.5 36.5 83 36.5 128.7s-12.6 90.2-36.5 128.7c-23.3 37.5-56.2 67.8-95.2 87.5-17 8.6-37.9 1.8-46.5-15.2s-1.8-37.9 15.2-46.5c57.8-29.3 93.8-88.5 93.8-154.5s-35.9-125.2-93.8-154.5c-17-8.6-23.9-29.4-15.2-46.5 6.1-12 18.3-19 30.9-19 5.3 0 10.6 1.2 15.6 3.7 39 19.8 72 50 95.2 87.6z" />
<glyph unicode="&#xe90e;" glyph-name="gou" d="M735.976 645.197l-324.601-324.602-123.352 123.376c-13.083 13.083-34.343 13.083-47.426 0s-13.083-34.343 0-47.426l147.041-147.041c6.566-6.59 15.152-9.859 23.738-9.859s17.172 3.269 23.738 9.811l348.291 348.243c13.084 13.083 13.084 34.367 0 47.451s-34.344 13.13-47.428 0.047zM512 950.414c-277.848 0-503.099-225.251-503.099-503.099s225.251-503.1 503.099-503.1 503.099 225.251 503.099 503.099-225.251 503.1-503.099 503.1zM512 11.267c-240.811 0-436.024 195.237-436.024 436.047 0 240.836 195.213 436.024 436.024 436.024s436-195.189 436-436.024c0.001-240.811-195.189-436.047-436-436.047z" />
<glyph unicode="&#xe90f;" glyph-name="huifu" d="M887 898h-750.001c-41.25 0-75-33.75-75-75v-600c0-41.25 33.75-75 75-75h37.5c22.5 0 37.5-15 37.5-37.5v-63.75c0-41.251 30-60 67.5-41.251l232.5 123.75c18.75 11.25 48.75 18.751 71.25 18.751h303.75c41.25 0 75 33.75 75 75v600c0 41.25-33.75 75-75 75zM699.5 373h-374.999c-22.5 0-37.5 14.999-37.5 37.499s18.75 37.5 37.5 37.5h374.999c22.5 0 37.5-15 37.5-37.5s-18.75-37.499-37.5-37.499zM699.5 598h-374.999c-22.5 0-37.5 14.999-37.5 37.499s18.75 37.5 37.5 37.5h374.999c22.5 0 37.5-15 37.5-37.5s-18.75-37.499-37.5-37.499z" />
<glyph unicode="&#xe910;" glyph-name="huifu2" d="M320.033 513.489c-35.433 0-64.191-28.759-64.191-64.191 0-35.497 28.757-64.192 64.191-64.192 35.432 0 64.191 28.695 64.191 64.192 0 35.432-28.758 64.191-64.191 64.191v0zM512.605 513.489c-35.432 0-64.191-28.759-64.191-64.191 0-35.497 28.758-64.192 64.191-64.192 35.438 0 64.197 28.695 64.197 64.192 0 35.432-28.758 64.191-64.197 64.191v0zM705.183 513.489c-35.433 0-64.191-28.759-64.191-64.191 0-35.497 28.757-64.192 64.191-64.192 35.433 0 64.191 28.695 64.191 64.192 0 35.432-28.757 64.191-64.191 64.191v0zM511.072 830.876c211.575 0 383.087-171.129 383.087-382.263 0-72.074-26.71-156.188-66.822-220.054-59.051-103.981 63.372-85.481 66.822-163.742-55.548 1.37-294.645-0.515-357.529-0.515-252.395 0-408.639 173.179-408.639 384.311 0 211.136 171.512 382.263 383.081 382.263zM511.072 895.009c-60.328 0-118.886-11.804-174.048-35.084-53.258-22.477-101.078-54.644-142.13-95.606-41.062-40.973-73.31-88.707-95.845-141.875-23.35-55.089-35.189-113.574-35.189-173.829 0-122.405 45.786-234.671 128.923-316.118 42.355-41.493 92.968-73.772 150.437-95.942 59.061-22.784 124.134-36.384 193.411-36.384 12.029 0 357.004 0.515 357.531 0.515 17.201 0 33.708 6.913 45.783 19.225 12.445 12.689 20.091 29.975 19.309 47.73-1.279 29.009-12.468 54.949-31.236 77.1-13.656 16.116-29.212 27.124-41.711 35.969-2.489 1.761-5.595 3.959-8.371 6.025 1.050 2.395 2.517 5.403 4.561 9.072 22.522 36.146 41.387 77.898 54.594 120.852 13.87 45.106 22.225 90.736 22.225 131.955 0 60.255-12.863 118.74-36.214 173.829-22.536 53.169-54.784 100.903-95.846 141.875-41.052 40.963-88.872 73.13-142.131 95.606-55.164 23.28-113.724 35.084-174.053 35.084v0z" />
<glyph unicode="&#xe911;" glyph-name="message" d="M406.189-64c-12.629 0-25.941 0.341-39.935 0.683-27.989 0.683-60.073 3.072-94.888 6.826-78.505 7.509-135.847 17.408-175.1 29.695-44.372 13.994-66.558 21.162-65.193 45.738 0.683 10.581 8.192 22.869 23.21 25.941h0.683c35.839 6.144 66.558 15.701 91.816 29.013 5.12 2.731 4.779 3.755 4.437 6.485-1.707 9.898-6.485 19.456-15.018 29.013-38.911 43.007-70.996 93.523-95.23 150.866s-37.546 120.146-38.911 186.363c-0.683 70.313 12.288 137.213 38.57 198.992 26.282 61.438 62.462 116.050 107.859 162.129 45.055 46.42 99.326 83.625 160.764 110.248 61.78 26.965 128.338 40.959 198.31 41.983l0.341-26.965v26.965c70.313 0.683 136.871-12.288 198.651-38.57 61.438-25.941 116.050-62.121 162.471-107.176 46.761-45.055 83.966-98.984 110.931-160.081 26.965-61.438 40.959-127.997 41.983-197.968 0.683-66.217-10.922-129.703-34.474-188.411-23.551-58.367-56.66-110.931-98.643-156.327-41.983-45.055-91.816-82.601-148.135-111.613-56.319-29.354-118.098-47.444-183.291-54.612-16.384-2.389-34.132-4.096-52.905-5.461-18.432-1.365-39.594-2.731-62.121-3.413-11.264 0-23.551-0.341-36.18-0.341zM147.465 15.187c33.109-7.168 76.457-13.312 129.021-18.432 33.791-3.755 64.51-5.803 91.134-6.485 26.965-0.683 51.54-0.683 73.044 0 21.845 0.683 41.983 1.707 59.732 3.072s34.815 3.072 50.175 5.461h0.683c58.708 6.144 114.002 22.527 164.86 48.809s95.912 60.073 133.458 100.691c37.546 40.276 67.241 87.038 88.062 139.602 20.821 52.223 31.061 108.541 30.378 167.932-0.683 62.804-13.312 122.194-37.204 176.806-24.234 54.953-57.343 103.080-98.984 143.356s-91.134 72.702-146.428 96.254c-54.953 23.21-114.685 34.815-177.148 34.132-62.804-0.683-122.536-13.312-177.489-37.204-55.295-24.234-103.763-57.343-144.38-98.643-40.618-41.642-73.044-90.792-96.595-145.746-23.21-54.953-34.815-114.685-34.132-177.148 1.365-59.049 12.97-115.026 34.815-166.225 21.845-51.54 50.516-97.278 85.673-135.847 15.36-17.066 24.575-35.839 27.989-55.977 4.437-26.282-7.168-49.151-31.743-62.804 0 0-0.341 0-0.341-0.341-7.85-4.096-16.042-7.85-24.575-11.264zM259.42 447.987c0-29.030 23.534-52.564 52.564-52.564s52.564 23.534 52.564 52.564v0c0 29.030-23.534 52.564-52.564 52.564s-52.564-23.534-52.564-52.564v0zM459.436 447.987c0-29.030 23.534-52.564 52.564-52.564s52.564 23.534 52.564 52.564v0c0 29.030-23.534 52.564-52.564 52.564s-52.564-23.534-52.564-52.564v0zM659.452 447.987c0-29.030 23.534-52.564 52.564-52.564s52.564 23.534 52.564 52.564v0c0 29.030-23.534 52.564-52.564 52.564s-52.564-23.534-52.564-52.564v0z" />
<glyph unicode="&#xe912;" glyph-name="message3" d="M930.797 419.912v0 0h-56.018c-15.482 0-28.011 12.555-28.011 28.010 0 15.482 12.528 28.008 28.011 28.008v0h56.018c15.481 0 28.008-12.527 28.008-28.008 0-15.454-12.528-28.010-28.008-28.010zM818.76 756.019v28.009l56.019 56.017 28.010-28.010v-28.008l-56.019-56.019-28.009 28.010zM692.721 340.18c-4.159-2.462-8.781-4.295-14.005-4.295-15.481 0-28.010 12.555-28.010 28.010 0 15.481 12.528 28.010 28.010 28.010v1.422c31.948 6.483 56.018 34.738 56.018 68.601 0 33.889-24.070 62.118-56.018 68.601v1.422c-15.481 0-28.010 12.555-28.010 28.008 0 15.482 12.528 28.009 28.010 28.009 5.224 0 9.847-1.805 14.005-4.295 55.962-12.801 98.031-61.899 98.031-121.746 0-59.849-42.069-108.946-98.031-121.747zM566.678 55.797c0 0-26.531-1.040-42.478 10.119l-265.619 185.942h-140.045c-30.935 0-56.018 25.082-56.018 56.018v280.090c0 30.935 25.082 56.018 56.018 56.018h140.044l265.62 185.941c9.848 6.892 20.105 10.12 32.112 10.12 0 0 66.385 4.431 66.385-56.017v-672.216c0.001-30.934-25.081-56.015-56.018-56.015zM566.678 728.011c0 58.342-28.008 28.010-28.008 28.010l-252.079-168.055h-140.045c-15.482 0-28.010-12.528-28.010-28.010v-224.072c0-15.454 12.528-28.010 28.010-28.010v0 0h140.044l252.080-168.054c0 0 28.008-24.508 28.008 0 0 24.51 0 588.19 0 588.19zM902.787 111.813v-28.008l-28.010-28.008-56.019 56.016v28.009l28.010 28.010 56.019-56.018z" />
<glyph unicode="&#xe913;" glyph-name="prefer" horiz-adv-x="1093" d="M1067.691 540.023c-65.604-123.563-214.426-249.924-236.885-277.504-22.528 27.58-171.281 153.941-236.954 277.504-18.637 32.085-27.989 72.021-23.552 114.688 7.987 76.049 61.918 137.557 127.522 145.681 54.545 6.827 103.765-21.641 132.983-68.062 29.15 46.421 78.37 74.889 132.915 68.062 65.673-8.124 119.535-69.632 127.522-145.681 4.437-42.667-4.915-82.603-23.552-114.688zM859.068 885.248h-693.385c-56.183 0-101.717-50.381-101.717-112.572v-512.478c0-62.191 45.534-112.572 101.717-112.572h693.385c56.183 0 101.717 50.381 101.717 112.572v32.154c20.617 21.367 42.394 44.715 63.898 69.564v-126.839c0-97.485-71.407-163.089-159.403-163.089h-705.809c-88.064 0-159.471 65.604-159.471 163.089v548.386c0 97.485 71.407 176.538 159.471 176.538h705.809c67.243 0 124.518-46.285 147.934-111.616-25.532 3.004-50.039-0.478-72.567-9.079-18.569 27.785-48.060 45.943-81.579 45.943zM301.534 4.676h351.164c16.179 0 29.355-15.223 29.355-33.997v-0.683c0-18.705-13.175-33.929-29.355-33.929h-351.164c-16.179 0-29.355 15.223-29.355 33.929v0.683c0 18.773 13.175 33.997 29.355 33.997z" />
<glyph unicode="&#xe914;" glyph-name="seach" d="M470.4 48c-112 0-224 41.6-310.4 128-169.6 172.8-169.6 451.2 0 624 172.8 172.8 451.2 172.8 620.8 0 172.8-172.8 172.8-451.2 0-620.8-83.2-86.4-198.4-131.2-310.4-131.2zM470.4 851.2c-92.8 0-185.6-35.2-256-105.6-140.8-140.8-140.8-374.4 0-515.2s374.4-140.8 515.2 0c140.8 140.8 140.8 374.4 0 515.2-70.4 70.4-166.4 105.6-259.2 105.6zM905.6-16l-160 160c-19.2 19.2-19.2 51.2 0 70.4s51.2 19.2 70.4 0l160-160c19.2-19.2 19.2-51.2 0-70.4-19.2-22.4-51.2-22.4-70.4 0z" />
<glyph unicode="&#xe915;" glyph-name="shichang" d="M838.769 845.558l-7.265 10.967h-627.855l-7.347-9.4c-159.98-204.242-137.841-328.607-110.433-384.599 27.494-56.095 83.18-92.385 141.911-92.385h5.284c74.092 2.939 123.372 39.747 149.32 66.381 23.444-26.644 67.569-62.264 136.643-62.264 72.013 0 116.946 38.769 139.438 65.7 31.421-25.62 92.749-67.594 157.041-67.594 42.138 0 78.254 17.28 107.653 51.328 109.117 127.048-76.426 409.897-84.388 421.868v0 0zM885.489 455.588c-19.768-23.137-42.685-34.181-70.083-34.181-61.962 0-126.316 56.115-140.672 69.443v168.228c0.020 0.471 0.261 0.819 0.261 1.28 0 13.629-11.018 24.643-24.602 24.643-13.599 0-24.607-11.013-24.607-24.643h-0.266v-182.927c-13.44-18.309-47.483-54.124-106.501-54.124-66.621 0-101.33 45.548-110.735 60.032v177.019c0 13.629-11.013 24.643-24.576 24.643-13.609 0-24.627-11.013-24.627-24.643v-176.133c-12.058-15.683-53.545-62.1-128-65.172h-3.308v0.046c-32.855 0-75.796 20.142-97.705 65.034-21.97 44.78-37.898 145.981 97.649 323.348h577.070c51.236-80.957 148.413-273.341 80.701-351.892v0 0zM840.899 342.221c-13.65 0-24.771-11.069-24.822-24.714v-0.051c0-0.046 0-0.046 0-0.046v-178.555c0-27.448-22.262-49.69-49.638-49.69h-212.69c-0.026 0-0.026 0-0.041 0h-296.161c-27.382 0-49.644 22.241-49.644 49.69v178.58c-0.015 13.706-11.105 24.796-24.796 24.796-13.681 0-24.771-11.095-24.817-24.796v-183.532c0-52.173 42.194-94.423 94.269-94.423h518.866c52.070 0 94.264 42.245 94.264 94.423v183.608c-0.067 13.655-11.136 24.724-24.791 24.724v-0.015z" />
<glyph unicode="&#xe916;" glyph-name="shize" d="M562.944-61.44h-105.626c0 0 0 0-0.001 0-29.007 0-52.539 23.442-52.684 52.415v86.44c-31.050 8.6-58.14 20.045-83.311 34.459l1.75-0.923-60.416-61.286c-9.467-9.55-22.59-15.463-37.094-15.463s-27.627 5.913-37.091 15.459l-74.756 74.756c-9.535 9.464-15.437 22.577-15.437 37.069s5.902 27.604 15.434 37.066l0.003 0.003 61.338 61.235c-13.735 23.447-25.366 50.546-33.493 79.12l-0.606 2.492-85.862-0.87c-28.962 0.029-52.429 23.514-52.429 52.48 0 0.090 0 0.18 0.001 0.27v-0.014 105.574c0 28.877 23.501 52.634 52.429 52.634h86.426c8.595 31.068 20.041 58.176 34.459 83.363l-0.923-1.75-61.286 60.467c-9.535 9.464-15.437 22.577-15.437 37.069s5.902 27.604 15.434 37.066l74.755 74.755c9.487 9.485 22.593 15.352 37.069 15.352s27.581-5.867 37.069-15.352v0l61.235-61.286c23.447 13.735 50.546 25.366 79.12 33.493l2.492 0.606-0.87 85.862c0 29.125 23.611 52.736 52.736 52.736v0h105.574c29.107 0 52.707-23.582 52.736-52.682v-86.48c27.75-7.424 55.501-18.893 81.562-33.485l60.416 61.286c9.487 9.485 22.593 15.352 37.069 15.352s27.581-5.867 37.069-15.352l74.752-74.752c9.535-9.464 15.437-22.577 15.437-37.069s-5.902-27.604-15.434-37.066l-61.289-61.289c14.592-25.19 26.061-52.941 34.048-81.562l85.914 0.819c28.928 0 52.378-23.45 52.378-52.634v-105.677c0-28.928-23.45-52.685-52.378-52.685h-86.477c-8.583-31.049-20.011-58.141-34.409-83.315l0.924 1.753 61.286-60.416c9.55-9.467 15.463-22.59 15.463-37.094s-5.913-27.627-15.459-37.091l-74.756-74.705c-9.464-9.535-22.577-15.437-37.069-15.437s-27.604 5.902-37.066 15.434l-61.289 61.289c-23.432-13.732-50.513-25.362-79.069-33.492l-2.492-0.607 0.819-85.862c-0.231-28.952-23.712-52.343-52.676-52.429h-0.008zM323.891 163.328c8.602 0 17.203-2.048 24.934-6.298 22.63-12.595 46.387-22.63 71.014-29.491 22.016-6.298 37.171-26.624 37.171-49.818v-86.477l105.984-0.256 0.256 86.733c0 23.194 15.462 43.52 37.222 49.818 24.576 6.861 48.64 16.896 71.014 29.491 7.181 4.016 15.756 6.381 24.884 6.381 14.326 0 27.291-5.825 36.656-15.236l61.288-61.288 75.008 74.752-61.286 61.542c-9.413 9.367-15.239 22.332-15.239 36.658 0 9.128 2.365 17.703 6.515 25.147l-0.135-0.263c12.595 22.63 22.579 46.387 29.491 71.014 6.298 22.016 26.624 37.222 49.818 37.222l86.733 0.256v105.677l-86.733 0.256c-23.194 0-43.52 15.462-49.818 37.222-6.912 24.627-16.896 48.64-29.491 71.014-4.016 7.181-6.381 15.756-6.381 24.884 0 14.326 5.825 27.291 15.236 36.656l61.288 61.288-74.445 75.008-61.594-61.286c-9.369-9.424-22.341-15.257-36.676-15.257-9.141 0-17.728 2.372-25.18 6.534l0.262-0.134c-20.348 11.678-43.895 21.725-68.657 28.917l-2.306 0.574c-21.68 6.44-37.223 26.187-37.223 49.564 0 0.089 0 0.178 0.001 0.267v-0.014 86.733l-105.984 0.307-0.205-86.835c0-23.194-15.462-43.52-37.222-49.818-24.576-6.861-48.64-16.896-71.014-29.491-7.173-4.005-15.737-6.363-24.851-6.363-14.342 0-27.321 5.839-36.688 15.269l-61.238 61.289-75.059-74.752 61.338-61.44c16.333-16.384 20.070-41.523 8.858-61.594-11.678-20.348-21.725-43.895-28.917-68.657l-0.574-2.306c-6.298-22.016-26.624-37.222-49.766-37.222h-87.040l-0.307-105.984 86.733-0.256c23.194 0 43.52-15.462 49.818-37.222 6.861-24.576 16.896-48.64 29.491-71.014 4.016-7.181 6.381-15.756 6.381-24.884 0-14.326-5.825-27.291-15.236-36.656l-0.002-0.002-61.389-61.286 74.752-75.008 61.542 61.235c10.291 9.728 23.45 14.848 36.915 14.848v0.051zM510.259 264.397c-100.313 0.175-181.585 81.447-181.76 181.743v0.017c0.145 100.335 81.429 181.637 181.743 181.811h0.017c100.335-0.145 181.637-81.429 181.811-181.743v-0.017c-0.261-100.288-81.476-181.521-181.732-181.811h-0.028zM510.259 575.59c-71.397-0.145-129.237-57.985-129.382-129.368v-0.014c0.116-71.437 57.996-129.317 129.422-129.434h0.011c71.415 0.145 129.266 58.014 129.382 129.422v0.011c-0.145 71.397-57.985 129.237-129.368 129.382h-0.014zM563.046-64h-105.728c-30.539 0-55.296 24.757-55.296 55.296v0 84.429c-29.925 8.599-55.933 19.621-80.235 33.316l1.847-0.957-58.726-59.853c-21.453-21.504-56.678-21.504-78.131 0l-74.752 74.752c-9.949 10.020-16.098 23.825-16.098 39.066s6.149 29.046 16.101 39.069l59.901 59.85c-12.881 22.481-24.004 48.503-32.017 75.854l-0.649 2.585-83.917-0.87c-30.618 0-55.245 24.627-55.245 55.296v105.574c0 30.31 24.883 55.245 55.296 55.245h84.429c8.499 29.915 19.527 55.949 33.292 80.228l-0.933-1.789-59.853 58.726c-9.964 10.023-16.124 23.838-16.124 39.091s6.159 29.069 16.126 39.094l74.749 74.749c21.453 21.453 56.371 21.453 78.131 0l59.853-59.904c24.32 13.824 50.688 24.678 78.438 32.666l-0.87 83.917c0 30.618 24.934 55.245 55.296 55.245h105.011c30.362 0 55.296-24.934 55.296-55.296v-84.429c29.855-8.274 55.908-19.317 80.095-33.238l-1.657 0.879 58.675 59.853c21.504 21.504 56.678 21.504 78.182 0l74.752-74.752c10.063-9.977 16.294-23.807 16.294-39.091 0-15.132-6.106-28.838-15.989-38.787l0.003 0.003-59.904-59.802c13.722-24.371 24.934-50.688 32.666-78.438l83.866 0.819c30.362 0 55.296-24.883 55.296-55.245v-105.933c0-30.362-24.678-55.296-55.296-55.296h-84.48c-8.599-29.925-19.621-55.933-33.316-80.235l0.957 1.847 59.904-58.726c10.026-10.033 16.227-23.89 16.227-39.195 0-15.177-6.098-28.93-15.977-38.943l-74.746-74.746c-21.504-21.453-56.678-21.453-78.131 0l-59.853 59.904c-22.507-13.007-48.54-24.139-75.94-32.048l-2.498-0.617 0.87-83.917c-0.029-30.517-24.775-55.245-55.296-55.245 0 0 0 0 0 0v0zM322.816 114.688l1.69-0.87c23.268-13.438 50.18-24.876 78.518-32.921l2.532-0.615 2.048-0.512v-88.525c0-27.494 22.272-49.818 49.766-49.818h105.626c27.502 0.029 49.788 22.316 49.818 49.815v0.003l-0.819 87.91 1.997 0.563c30.913 8.963 57.783 20.469 82.855 34.767l-1.857-0.975 1.741 1.126 62.669-62.669c8.998-9.052 21.458-14.654 35.226-14.654s26.228 5.602 35.223 14.652l74.754 74.754c9.037 8.996 14.629 21.445 14.629 35.2s-5.592 26.204-14.627 35.198l-0.002 0.002-62.976 61.542 0.819 1.741c14.848 26.317 26.061 53.504 33.485 80.998l0.563 2.048h88.474c27.484 0.029 49.759 22.287 49.818 49.761v105.683c-0.029 27.502-22.316 49.788-49.815 49.818h-0.003l-87.859-0.87-0.614 1.997c-8.645 30.831-20.172 57.728-34.69 82.669l0.898-1.671-1.126 1.741 62.72 62.72c9.037 8.996 14.629 21.445 14.629 35.2s-5.592 26.204-14.627 35.198l-74.754 74.754c-9.035 8.951-21.472 14.481-35.2 14.481s-26.165-5.53-35.204-14.485l0.004 0.004-61.85-62.976-1.741 0.819c-23.273 13.448-50.188 24.871-78.537 32.878l-2.513 0.607-2.048 0.614v88.73c-0.029 27.484-22.287 49.759-49.761 49.818h-105.683c-27.502-0.029-49.788-22.316-49.818-49.815v-0.003l0.87-87.91-1.997-0.512c-30.831-8.645-57.728-20.172-82.669-34.69l1.671 0.898-1.741-1.178-62.72 62.72c-9.035 8.951-21.472 14.481-35.2 14.481s-26.165-5.53-35.204-14.485l-74.748-74.748c-9.012-9.007-14.586-21.453-14.586-35.2s5.574-26.193 14.586-35.2v0l62.976-61.85-0.819-1.741c-13.444-23.258-24.866-50.155-32.877-78.485l-0.608-2.514-0.614-2.048h-88.422c-27.484-0.029-49.759-22.287-49.818-49.761v-105.683c0-27.494 22.323-49.818 49.818-49.818l87.859 0.87 0.563-2.048c8.038-28.877 19.456-56.064 33.792-80.998l1.178-1.69-62.72-62.72c-9.012-9.007-14.586-21.453-14.586-35.2s5.574-26.193 14.586-35.2l74.752-74.752c8.99-9.049 21.441-14.65 35.2-14.65s26.21 5.601 35.197 14.647l0.003 0.003 61.85 62.976zM565.606-11.878l-111.104 0.256v89.344c-0.051 22.195-14.713 40.952-34.875 47.165l-0.35 0.093c-27.251 7.638-51.019 17.785-73.082 30.55l1.504-0.803c-6.699 3.801-14.715 6.042-23.254 6.042-0.069 0-0.138 0-0.206 0h0.011c-12.902 0-25.754-5.171-34.918-14.336l-63.59-62.976-78.438 78.746 62.976 62.976c8.906 8.881 14.416 21.163 14.416 34.733 0 8.671-2.25 16.816-6.198 23.884l0.128-0.249c-11.616 20.48-21.755 44.215-29.171 69.123l-0.627 2.455c-6.021 20.508-24.669 35.228-46.754 35.228-0.177 0-0.354-0.001-0.53-0.003h0.027l-89.6 0.307 0.307 111.104h89.293c22.182 0.043 40.934 14.683 47.164 34.824l0.093 0.35c6.861 24.627 16.896 48.947 29.798 71.578 3.82 6.819 6.070 14.965 6.070 23.635 0 13.569-5.51 25.852-14.415 34.732l-0.001 0.001-62.976 63.59 78.694 78.49 62.976-62.976c8.878-8.886 21.147-14.383 34.7-14.383 8.684 0 16.841 2.257 23.916 6.216l-0.248-0.127c20.495 11.619 44.247 21.758 69.174 29.172l2.455 0.627c20.508 6.021 35.228 24.669 35.228 46.754 0 0.159-0.001 0.318-0.002 0.476v-0.024l0.256 89.6 111.104-0.256v-89.446c0-21.76 14.592-41.216 35.226-47.206 24.883-6.912 48.947-16.896 71.578-29.798 18.893-10.598 42.906-7.168 58.368 8.294l63.59 62.976 78.438-78.694-63.283-62.976c-8.897-8.88-14.401-21.156-14.401-34.718 0-8.697 2.264-16.866 6.234-23.949l-0.127 0.247c12.595-22.63 22.63-46.694 29.747-71.578 6.114-20.52 24.813-35.227 46.946-35.227 0.109 0 0.219 0 0.328 0.001h-0.017l89.344-0.307v-110.797l-89.344-0.256c-22.195-0.051-40.952-14.713-47.165-34.875l-0.093-0.35c-7.958-27.34-18.084-51.081-30.63-73.275l0.882 1.697c-3.832-6.827-6.088-14.984-6.088-23.668 0-13.553 5.497-25.822 14.382-34.699v0l63.283-63.59-78.746-78.438-62.976 62.976c-8.878 8.886-21.147 14.383-34.7 14.383-8.684 0-16.841-2.257-23.916-6.216l0.248 0.127c-20.552-11.844-44.326-21.982-69.344-29.184l-2.284-0.563c-20.52-6.114-35.227-24.813-35.227-46.946 0-0.109 0-0.219 0.001-0.328v0.017l-0.256-89.6zM459.878-6.144l100.506-0.307 0.307 84.173c0 24.32 16.026 45.824 39.219 52.378 26.843 7.648 50.208 17.593 71.979 30.013l-1.579-0.829c7.586 4.283 16.656 6.807 26.316 6.807 14.999 0 28.577-6.085 38.4-15.92l59.291-59.291 71.27 70.707-59.238 59.546c-9.875 9.83-15.987 23.435-15.987 38.467 0 9.633 2.51 18.681 6.912 26.523l-0.141-0.273c12.646 22.323 22.374 46.080 29.184 70.451 6.784 22.843 27.59 39.22 52.22 39.22 0.073 0 0.147 0 0.22 0h-0.011l84.173 0.307v100.198l-84.173 0.256c-24.32 0-45.773 16.026-52.378 39.219-7.67 26.869-17.615 50.249-30.020 72.047l0.836-1.595c-4.272 7.577-6.789 16.636-6.789 26.283 0 15.015 6.098 28.607 15.952 38.432l59.239 59.239-70.707 71.578-59.853-59.238c-9.83-9.875-23.435-15.987-38.467-15.987-9.633 0-18.681 2.51-26.523 6.912l0.273-0.141c-20.192 11.606-43.556 21.568-68.131 28.674l-2.269 0.562c-22.843 6.784-39.219 27.59-39.219 52.22 0 0.055 0 0.111 0 0.166v-0.009 83.61l-100.506 0.307-0.307-84.173c0-24.371-16.026-45.824-39.219-52.429-26.843-7.648-50.208-17.593-71.979-30.013l1.579 0.829c-7.569-4.261-16.617-6.771-26.25-6.771-15.032 0-28.636 6.111-38.465 15.985l-0.002 0.002-59.29 59.187-71.27-70.707 59.29-59.75c17.152-17.203 20.89-43.827 9.165-64.717-12.595-22.323-22.374-46.080-29.184-70.451-6.784-22.843-27.59-39.22-52.22-39.22-0.073 0-0.147 0-0.22 0h-83.906l-0.256-100.198 84.173-0.256c24.32 0 45.824-16.077 52.378-39.27 6.861-24.32 16.589-48.077 29.184-70.4 11.776-20.89 8.038-47.514-9.114-64.717l-59.29-59.238 70.707-71.322 59.546 58.982c10.035 10.035 24.371 16.026 38.656 16.026 9.216 0 18.074-2.253 26.112-6.861 22.272-12.595 46.080-22.323 70.4-29.184 23.194-6.605 39.219-28.058 39.219-52.429v-83.558h0.256zM510.31 261.837c-101.771 0.116-184.248 82.557-184.422 184.303v0.017c0.116 101.807 82.616 184.306 184.411 184.422h0.011c101.745-0.175 184.175-82.622 184.32-184.357v-0.014c-0.146-101.749-82.575-184.197-184.304-184.371h-0.016zM510.31 625.152c-98.769-0.146-178.798-80.175-178.944-178.93v-0.014c0.232-98.734 80.21-178.712 178.922-178.944h0.022c98.713 0.262 178.661 80.228 178.893 178.922v0.022c-0.232 98.717-80.181 178.683-178.868 178.944h-0.025zM510.31 313.907c-73.021 0.116-132.184 59.28-132.301 132.29v0.011c2.5 71.13 60.765 127.844 132.275 127.844s129.775-56.714 132.269-127.616l0.006-0.228c-0.116-73.003-59.251-132.155-132.235-132.301h-0.014zM510.31 572.979c-69.988-0.116-126.699-56.792-126.874-126.755v-0.017c0.145-70.001 56.868-126.706 126.862-126.822h0.011c69.984 0.145 126.677 56.839 126.822 126.808v0.014c-0.145 69.984-56.839 126.677-126.808 126.822h-0.014z" />
<glyph unicode="&#xe917;" glyph-name="shopcar" d="M947.106 659.916c-0.558 14.541-12.512 26.159-27.19 26.159h-535.963c-15.028 0-27.21-12.185-27.21-27.211v-5.443c0-15.031 12.182-27.215 27.21-27.215h492.698l-47.498-181.054-466.327-35.884-99.066 309.462c0 15.031-12.184 27.216-27.214 27.216h-132.29c-15.031 0-27.215-12.185-27.215-27.216v-5.443c0-15.027 12.182-27.214 27.215-27.214h104.95l120.892-377.624c-21.484-16.408-35.344-42.287-35.344-71.402 0-49.596 40.21-89.805 89.808-89.805h6.348c49.598 0 89.808 40.209 89.808 89.805 0 10.495-1.81 20.57-5.119 29.934h227.945c-3.309-9.363-5.119-19.44-5.119-29.934 0-49.596 40.209-89.805 89.807-89.805h7.106c49.601 0 89.81 40.209 89.81 89.805s-40.209 89.805-89.81 89.805h-406.128l-7.621 23.802 467.159 35.947c14.47-2.159 28.94 5.812 34.004 19.6l0.595 2.266c0.237 0.771 0.441 1.552 0.612 2.341l60.637 231.135c1.346 2.894 2.199 6.066 2.448 9.406 0.458 2.883 0.462 5.763 0.063 8.566v0zM790.35 266.982h2.117c16.532 0 29.934-13.406 29.934-29.938s-13.402-29.934-29.934-29.934h-2.117c-16.532 0-29.938 13.401-29.938 29.934s13.406 29.938 29.938 29.938v0zM388.789 266.982c16.537 0 29.939-13.406 29.939-29.938s-13.402-29.934-29.939-29.934h-2.112c-16.532 0-29.938 13.401-29.938 29.934s13.406 29.938 29.938 29.938h2.112z" />
<glyph unicode="&#xe918;" glyph-name="shouchang" d="M898.467 612.434h-208.843c-39.938 0-82.428 30.705-94.469 68.274l-60.77 189.731c-12.001 37.569-31.858 37.627-44.166 0.156l-62.266-190.042c-12.308-37.453-54.975-68.118-94.913-68.118h-207.563c-39.938 0-46.381-19.233-14.347-42.722l171.123-125.542c32.035-23.491 48.008-73.35 35.474-110.745l-66.367-198.579c-12.484-37.413 3.627-48.925 35.75-25.592l166.964 121.147c32.174 23.315 84.814 23.315 116.986 0l166.837-121.147c32.163-23.333 48.363-11.784 36.007 25.669l-65.568 198.407c-12.408 37.471 3.616 87.427 35.563 111.074l169.093 125.036c31.946 23.647 25.363 42.995-14.526 42.995z" />
<glyph unicode="&#xe919;" glyph-name="shouchang2" d="M327.728 155.699l184.326 74.594 184.33-74.542-4.484 166.563-0.908 32.985 20.664 25.712 96.563 120.353-185.408 56.144-110.758 159.75-110.697-159.75-185.523-56.202 117.23-146.006-0.908-32.985-4.428-166.615zM789.94 20.871l-277.886 112.402-277.881-112.402 8.116 303.886-179.899 224.067 282.88 85.667 166.785 240.639 166.844-240.639 282.712-85.667-179.844-224.068 8.174-303.885z" />
<glyph unicode="&#xe91a;" glyph-name="shuxue" d="M960.918 171.021h-110.186v190.054c51.7 4.455 90.456 23.033 90.456 45.365s-38.756 40.884-90.456 45.365v22.082c51.7 4.507 90.456 23.036 90.456 45.368s-38.756 40.809-90.456 45.34v22.159c51.7 4.481 90.456 23.033 90.456 45.317 0 22.333-38.756 40.884-90.456 45.391v47.445h110.184v92.936h-897.836v-92.936h181.116v-160.311c-51.6-4.53-90.357-23.007-90.357-45.34s38.756-40.862 90.357-45.368v-22.082c-51.6-4.481-90.357-23.033-90.357-45.365s38.756-40.91 90.357-45.365v-190.053h-181.116v-92.861h897.836v92.86zM802.389 677.46c-51.651-4.507-90.382-23.058-90.382-45.391 0-22.285 38.73-40.809 90.382-45.317v-22.159c-51.651-4.53-90.382-23.007-90.382-45.34s38.73-40.862 90.382-45.368v-22.082c-51.651-4.53-90.382-23.033-90.382-45.365s38.73-40.91 90.382-45.365v-190.053h-226.784v75.384c51.626 4.556 90.359 23.058 90.359 45.391 0 22.307-38.733 40.835-90.359 45.365v23.912c51.626 4.455 90.359 23.033 90.359 45.365s-38.733 40.835-90.359 45.365v273.1h226.784v-47.443zM292.519 361.074c51.7 4.455 90.431 23.033 90.431 45.365s-38.73 40.835-90.431 45.365v22.082c51.7 4.507 90.431 23.036 90.431 45.368s-38.73 40.809-90.431 45.34v160.311h234.692v-273.1c-51.626-4.481-90.382-23.033-90.382-45.365s38.756-40.91 90.382-45.365v-23.912c-51.626-4.53-90.382-23.058-90.382-45.365 0-22.333 38.756-40.884 90.382-45.391v-75.384h-234.692v190.050z" />
<glyph unicode="&#xe91b;" glyph-name="soft" d="M885.841 851.008h-749.336c-40.535 0-72.384-32.045-72.384-72.865v-658.921c0-40.821 31.848-72.909 72.384-72.909h749.336c40.535 0 72.384 32.088 72.384 72.909v656.825c0 39.336-33.31 74.96-72.384 74.96zM900.313 119.222c0-7.291-7.226-14.582-14.473-14.582h-749.336c-8.688 0-14.473 5.807-14.473 14.582v412.824h778.281v-412.824zM900.313 591.812h-778.281v186.331c0 7.291 7.226 14.582 14.473 14.582h749.336c8.688 0 14.473-5.85 14.473-14.582v-186.331zM480.765 218.062c2.903-1.441 5.785-1.441 7.247-1.441 10.129 0 20.257 7.291 24.601 17.485l55.008 169.063c4.344 13.141-2.881 27.722-15.913 32.088-13.031 4.366-27.503-2.925-31.847-16.022l-55.008-169.086c-4.344-13.141 2.882-27.722 15.912-32.088zM670.392 330.304l53.568-21.872-53.568-24.753c-13.010-5.85-18.817-20.432-13.010-33.53 4.344-8.775 13.010-14.581 23.16-14.581 2.881 0 7.226 0 10.128 2.925l107.114 49.551c8.688 4.366 14.494 13.098 14.494 23.313 1.441 8.732-5.806 17.507-14.494 21.872l-108.553 45.186c-13.032 5.806-27.504-1.485-33.312-14.582-5.784-13.118 1.463-27.699 14.474-33.529zM239.035 286.56l107.114-49.552c2.903-1.44 7.247-2.903 10.129-2.903 10.129 0 18.817 5.828 23.16 14.561 5.785 13.141 0 27.722-13.032 33.529l-53.546 24.798 53.546 21.872c14.494 7.27 21.72 21.851 15.935 34.969-5.785 13.097-20.279 18.948-33.288 14.582l-108.576-45.186c-8.688-4.365-15.913-13.14-15.913-23.334s5.784-18.948 14.472-23.335zM440.492 730.905c-19.995 0-36.192-16.328-36.192-36.454s16.197-36.454 36.192-36.454c19.973 0 36.192 16.328 36.192 36.454s-16.219 36.454-36.192 36.454zM232.050 730.905c-19.995 0-36.192-16.328-36.192-36.454s16.197-36.454 36.192-36.454c19.974 0 36.171 16.328 36.171 36.454s-16.198 36.454-36.171 36.454zM336.26 730.905c-19.973 0-36.192-16.328-36.192-36.454s16.219-36.454 36.192-36.454c19.995 0 36.192 16.328 36.192 36.454s-16.198 36.454-36.192 36.454z" />
<glyph unicode="&#xe91c;" glyph-name="tel" d="M388.254-0.869h0.011c-33.578 0-64.377 7.863-91.566 23.398-29.041 16.59-51.697 42.157-70.884 71.577-2.558 4.605-2.814 5.117-5.396 9.841-28.963 53.004 3.577 136.895 82.809 199.291 43.187 33.998 90.93 53.493 131.005 53.493 29.784 0 53.893-10.922 68.49-30.895 3.125-2.046 8.339-4.716 12.615-4.716 1.227 0 3.78 0 7.604 4.329 0.25 0.259 0.496 0.518 0.746 0.799 22.309 28.934 42.928 60.089 61.329 92.621 16.902 29.903 31.863 60.822 44.478 91.974 1.746 9.847 0.432 14.758-0.69 16.138-0.807 0.992-3.209 1.638-3.231 1.638-21.836 0.516-41.345 10.341-56.867 28.396-29.215 33.997-41.636 93.765-33.212 159.886 12.905 101.37 68.502 177.811 129.324 177.811 0.193 0 1.529-0.021 1.732-0.021 2.888-0.065 5.709-0.345 8.478-0.776 37.336 1.659 71.681-6.118 101.531-23.16 138.168-78.941 141.076-327.055 6.635-564.846-103.761-183.498-262.472-306.778-394.942-306.778zM434.232 306.361c-28.559 0-65.875-15.964-99.841-42.701-59.227-46.624-85.359-107.911-71.994-132.97 2.047-3.837 3.481-6.242 4.605-8.186 13.303-23.024 33.208-43.957 54.688-56.239 19.477-11.14 41.873-16.762 66.563-16.762 113.1 0 257.462 115.63 351.085 281.205 116.591 206.206 122.194 433.486 12.226 496.31-22.062 12.582-48.088 18.141-76.538 16.439-2.089-0.107-4.179 0.020-6.225 0.409-1.142 0.236-2.306 0.43-3.492 0.474-29.914 0-70.095-57.224-79.844-133.817-6.454-50.631 1.961-98.007 21.437-120.673 9.134-10.622 16.88-10.794 19.421-10.859 2.188 0 25.778-0.733 41.635-20.317 12.098-14.932 15.622-35.162 10.471-60.089-0.303-1.464-0.734-2.909-1.292-4.31-13.64-33.933-29.883-67.651-48.284-100.205-20.079-35.505-42.669-69.482-67.155-101.001-1.087-1.402-2.304-2.672-3.62-3.793-11.914-12.13-26.618-18.527-42.745-18.527-25.573 0-45.415 16.546-47.594 18.443-1.885 1.636-3.533 3.553-4.858 5.688-5.933 9.501-18.859 11.483-28.651 11.483zM354.774 476.007c-12.033 0-22.72 8.597-24.971 20.854-4.255 23.204 0.787 46.688 14.187 66.123 13.412 19.413 33.579 32.467 56.792 36.712 13.833 2.521 27.050-6.614 29.581-20.425 2.534-13.81-6.614-27.059-20.423-29.579-9.856-1.81-18.422-7.347-24.109-15.599-5.699-8.229-7.831-18.205-6.033-28.073 2.543-13.81-6.603-27.038-20.414-29.581-1.54-0.279-3.092-0.432-4.61-0.432zM268.883 477.84c-12.033 0-22.718 8.574-24.959 20.832-15.448 84.2 40.484 165.25 124.681 180.677 13.767 2.519 27.050-6.615 29.582-20.423 2.531-13.789-6.615-27.042-20.414-29.561-56.621-10.385-94.237-64.895-83.853-121.514 2.532-13.812-6.615-27.060-20.425-29.582-1.54-0.28-3.090-0.43-4.611-0.43zM170.499 450.090c-12.032 0-22.719 8.572-24.97 20.832-12.841 70.042 2.359 140.884 42.809 199.484 40.44 58.603 101.284 97.944 171.326 110.785 13.778 2.52 27.039-6.614 29.581-20.424 2.532-13.811-6.614-27.039-20.424-29.582-56.674-10.382-105.914-42.227-138.653-89.648-32.726-47.441-45.030-104.773-34.645-161.458 2.532-13.789-6.602-27.039-20.413-29.583-1.551-0.28-3.091-0.407-4.611-0.407z" />
<glyph unicode="&#xe91d;" glyph-name="time" d="M874.179 810.081c-96.722 96.664-225.269 149.919-362.076 149.919-136.759 0-265.323-53.255-362.006-149.93-96.718-96.706-149.979-225.295-149.979-362.073-0.024-136.793 53.195-265.354 149.901-362.119 96.67-96.614 225.246-149.878 361.988-149.878 136.807 0 265.426 53.298 362.172 149.979 199.588 199.608 199.619 524.417 0 724.102v0 0zM826.994 133.173c-84.131-84.119-195.995-130.492-314.986-130.492-118.907 0-230.744 46.35-314.82 130.393-84.077 84.091-130.368 195.934-130.35 314.924 0 118.973 46.314 230.826 130.42 314.898 84.094 84.076 195.894 130.373 314.844 130.373 118.955 0 230.779-46.297 314.891-130.379 173.59-173.631 173.59-456.143 0-629.716v0 0zM733.351 322.524l-176.98 102.351v279.125c0 23.557-19.111 42.667-42.674 42.667-23.545 0-42.656-19.109-42.656-42.667v-298.67c0-15.826 19.672-29.096 32.468-36.437 3.539-5.329 13.268-10.153 19.2-13.565l176.001-106.674c20.388-11.769 42.496-4.775 54.271 15.62 11.776 20.401 0.811 46.47-19.63 58.245v0 0.005z" />
<glyph unicode="&#xe91e;" glyph-name="tumu" d="M566.056 712.056h-293.388v-58.683h293.388v58.683zM566.056 536.015h-293.388v-58.676h293.388v58.676zM918.122 66.588v528.11c0 32.412-26.259 58.675-58.676 58.675h-176.023v176.032c0 32.41-26.288 58.682-58.691 58.682h-410.74c-32.42 0-58.673-26.27-58.673-58.682v-762.818h-58.692v-58.675h880.168v58.675l-58.673 0.001zM624.731 66.588h-410.74v762.817h410.74v-762.817zM859.447 66.588h-176.024v528.102h176.024v-528.102zM566.056 359.992h-293.388v-58.676h293.388v58.676z" />
<glyph unicode="&#xe91f;" glyph-name="upload" d="M511.994 284.802c-14.362 0-27.262 6.697-36.173 17.346l-0.004-0.006-146.031 174.653c-7.771 9.284-12.499 21.569-12.499 35.048 0 28.935 21.792 52.395 48.675 52.395 14.364 0 27.269-6.699 36.179-17.348l0.004 0.003 61.178-73.16v343.747c0 28.936 21.792 52.395 48.672 52.395 26.891 0 48.68-23.458 48.68-52.395 0 0 0 0 0-0.002v-343.746l61.179 73.157c8.908 10.649 21.813 17.348 36.176 17.348 26.886 0 48.678-23.46 48.678-52.395 0-13.479-4.731-25.765-12.499-35.048l0.004-0.005-146.035-174.642c-8.907-10.651-21.815-17.346-36.182-17.346v0zM836.517 340.489v-209.577h-649.036v209.577c0 28.938-21.795 52.395-48.678 52.395s-48.678-23.456-48.678-52.395v-261.972c0-28.936 21.795-52.392 48.678-52.392h746.393c26.888 0 48.68 23.456 48.68 52.392v261.972c0 28.938-21.792 52.395-48.68 52.395-26.883 0-48.678-23.456-48.678-52.395v0z" />
<glyph unicode="&#xe920;" glyph-name="user" d="M517.96 700.199c-96.087 0-173.93-77.965-173.93-173.93 0-96.087 77.965-173.93 173.93-173.93 96.087 0 173.93 77.965 173.93 173.93 0.122 95.966-77.843 173.93-173.93 173.93zM511.513 878.508c-237.178 0-430.569-193.391-430.569-430.569 0-237.299 193.391-430.691 430.691-430.691s430.691 193.391 430.691 430.691c-0.122 237.178-193.513 430.569-430.812 430.569zM740.664 166.245l-40.503 70.18c-23.718 43.543-68.842 70.667-118.467 70.667h-142.915c-51.206 0-98.155-29.313-121.021-75.41l-35.759-65.072c-81.735 66.775-133.914 167.971-133.914 281.694 0 200.202 163.227 363.429 363.429 363.429s363.429-163.227 363.429-363.429c0.122-114.089-52.422-215.284-134.279-282.059z" />
</font>
</defs>
</svg>
